<svg width="15" height="15" viewBox="0 0 15 15" fill="none" xmlns="http://www.w3.org/2000/svg">
<path d="M5.09888 9.78898L9.67686 5.211" stroke="#0066CC" stroke-linecap="round" stroke-linejoin="round"/>
<path d="M5.38603 6.35899C5.86155 6.35899 6.24702 5.97352 6.24702 5.498C6.24702 5.02248 5.86155 4.63699 5.38603 4.63699C4.91051 4.63699 4.52502 5.02248 4.52502 5.498C4.52502 5.97352 4.91051 6.35899 5.38603 6.35899Z" stroke="#0066CC" stroke-linecap="round" stroke-linejoin="round"/>
<path d="M9.96401 10.363C10.4395 10.363 10.825 9.97749 10.825 9.50198C10.825 9.02646 10.4395 8.64099 9.96401 8.64099C9.4885 8.64099 9.10303 9.02646 9.10303 9.50198C9.10303 9.97749 9.4885 10.363 9.96401 10.363Z" stroke="#0066CC" stroke-linecap="round" stroke-linejoin="round"/>
<path d="M7.5 14.5C11.366 14.5 14.5 11.366 14.5 7.5C14.5 3.63401 11.366 0.5 7.5 0.5C3.63401 0.5 0.5 3.63401 0.5 7.5C0.5 11.366 3.63401 14.5 7.5 14.5Z" stroke="#0066CC" stroke-linecap="round" stroke-linejoin="round"/>
</svg>
