<svg width="120" height="29" viewBox="0 0 120 29" fill="none" xmlns="http://www.w3.org/2000/svg">
<path d="M25.4149 10.8936V17.1934C24.5551 18.5192 22.8459 21.2347 22.8876 21.4893C22.929 21.7444 21.6189 24.6708 20.9589 26.1026C19.6473 26.845 16.462 28.3301 14.2108 28.3301C11.9596 28.3301 8.77327 26.845 7.46179 26.1026C6.80168 24.6706 5.4925 21.7441 5.53406 21.4893C5.57575 21.2347 3.86656 18.5192 3.00671 17.1934V10.8936L4.88269 9.74808L14.2108 15.2207L23.5389 9.74808L25.4149 10.8936Z" fill="#191919"/>
<path d="M14.2064 0.00942993C13.1516 -0.06684 10.4814 0.290853 7.38416 2.12857C8.17123 3.26972 8.59993 4.99551 8.73083 6.6481C8.88491 8.59309 9.03894 9.10516 9.60388 9.71939C10.0559 10.2108 12.2232 11.6643 13.2504 12.3297C8.78222 10.3847 8.5765 9.71896 8.3197 8.54166C8.06287 7.36428 7.39526 4.95897 6.57361 3.67935C6.10061 2.94277 5.33441 3.34625 4.74353 3.89713C3.78612 5.12617 1.99548 7.85381 1.99548 15.5348C1.89193 15.671 1.66041 16.0482 1.56482 16.4684C1.44536 16.9936 0.203335 21.0874 0.083374 21.6335C-0.0360851 22.1779 -0.155265 22.5674 0.704468 23.1217C1.56474 23.6762 6.75101 26.5655 7.27673 26.6823L8.01697 25.8659C7.73818 24.1052 7.0089 20.2503 6.32068 18.9196C5.46042 17.2563 4.22445 17.2272 5.19763 12.7917C7.07762 13.9979 11.511 16.7313 14.2064 18.0153V0.00942993Z" fill="#323232"/>
<path d="M10.2896 17.3664C9.95116 17.1344 7.08161 15.4649 5.68915 14.6591C5.58339 15.626 5.68915 16.3673 6.16505 16.5929C6.64096 16.8185 10.0516 18.6878 10.2896 19.0746C10.4799 19.384 11.0387 20.5942 11.2943 22.6462L12.0081 26.3906C11.9112 25.1552 11.6856 22.1879 11.5587 20.2026C11.4 17.7209 10.7126 17.6565 10.2896 17.3664Z" fill="white"/>
<path d="M14.1952 0.00952148C15.2502 -0.066634 17.9195 0.292105 21.0165 2.12964C20.2298 3.2708 19.8007 4.99606 19.6698 6.64819C19.5157 8.59309 19.3617 9.10526 18.7968 9.71948C18.3441 10.2112 16.1772 11.6646 15.1503 12.3298C19.6185 10.3847 19.8241 9.71906 20.0809 8.54175C20.3377 7.36453 21.0054 4.9592 21.827 3.67944C22.2993 2.944 23.0646 3.34472 23.6552 3.89429C24.612 5.12191 26.4061 7.8477 26.4061 15.5349C26.5098 15.6713 26.7403 16.0486 26.8358 16.4685C26.9553 16.9937 28.1973 21.0874 28.3173 21.6335C28.4367 22.1781 28.5563 22.5674 27.6962 23.1218C26.836 23.6763 21.6514 26.5652 21.1249 26.6824L20.3837 25.865C20.6625 24.1041 21.3928 20.2503 22.0809 18.9197C22.9412 17.2566 24.1771 17.227 23.204 12.7917C21.3242 13.9979 16.8907 16.7313 14.1952 18.0154V0.00952148Z" fill="#323232"/>
<path d="M18.112 17.3664C18.4505 17.1344 21.32 15.4649 22.7125 14.6591C22.8182 15.626 22.7125 16.3673 22.2366 16.5929C21.7607 16.8185 18.35 18.6878 18.112 19.0746C17.9217 19.384 17.3629 20.5942 17.1073 22.6462L16.3935 26.3906C16.4904 25.1552 16.716 22.1879 16.8429 20.2026C17.0016 17.7209 17.689 17.6565 18.112 17.3664Z" fill="white"/>
<path d="M117.416 14.0878C117.403 13.7405 117.339 13.4383 117.223 13.181C117.12 12.9109 116.979 12.6923 116.799 12.5251C116.619 12.345 116.413 12.2164 116.181 12.1392C115.95 12.0492 115.712 12.0042 115.467 12.0042C114.966 12.0042 114.529 12.1907 114.156 12.5637C113.795 12.9238 113.59 13.4318 113.538 14.0878H117.416ZM113.461 15.6698C113.5 16.3901 113.705 16.9625 114.078 17.3869C114.464 17.8114 114.966 18.0236 115.583 18.0236C115.995 18.0236 116.355 17.9336 116.664 17.7535C116.985 17.5606 117.191 17.2969 117.281 16.9625H119.866C119.57 17.94 119.056 18.6924 118.323 19.2198C117.59 19.7471 116.715 20.0108 115.699 20.0108C112.535 20.0108 110.953 18.2873 110.953 14.8402C110.953 14.1071 111.056 13.4447 111.262 12.853C111.467 12.2614 111.763 11.7533 112.149 11.3289C112.548 10.9044 113.03 10.5829 113.596 10.3642C114.162 10.1327 114.811 10.017 115.545 10.017C117.011 10.017 118.117 10.4864 118.863 11.4254C119.622 12.3643 120.001 13.7791 120.001 15.6698H113.461Z" fill="#191919"/>
<path d="M105.204 19.76V10.2678H107.558V11.4061C107.764 11.0845 107.976 10.8337 108.195 10.6536C108.426 10.4736 108.658 10.3385 108.889 10.2485C109.133 10.1456 109.378 10.0813 109.622 10.0556C109.867 10.0298 110.117 10.017 110.375 10.017H110.703V12.5829C110.471 12.5444 110.24 12.5251 110.008 12.5251C108.477 12.5251 107.712 13.2904 107.712 14.8209V19.76H105.204Z" fill="#191919"/>
<path d="M99.1261 17.9078C100.657 17.9078 101.422 16.9432 101.422 15.0139C101.422 13.0974 100.657 12.1392 99.1261 12.1392C97.5956 12.1392 96.8303 13.0974 96.8303 15.0139C96.8303 16.9432 97.5956 17.9078 99.1261 17.9078ZM99.1261 20.0108C98.3544 20.0108 97.6663 19.8886 97.0618 19.6442C96.4573 19.3998 95.9428 19.059 95.5183 18.6217C95.1067 18.1844 94.7916 17.657 94.573 17.0396C94.3543 16.4223 94.245 15.747 94.245 15.0139C94.245 14.2679 94.3543 13.5862 94.573 12.9688C94.8045 12.3514 95.1325 11.8241 95.5569 11.3868C95.9814 10.9495 96.4894 10.6151 97.0811 10.3835C97.6856 10.1392 98.3673 10.017 99.1261 10.017C99.8721 10.017 100.541 10.1392 101.133 10.3835C101.724 10.6151 102.226 10.9495 102.637 11.3868C103.062 11.8112 103.383 12.3321 103.602 12.9495C103.834 13.5669 103.949 14.255 103.949 15.0139C103.949 15.7727 103.834 16.4608 103.602 17.0782C103.383 17.6827 103.062 18.2037 102.637 18.641C102.226 19.0783 101.718 19.4191 101.113 19.6635C100.522 19.895 99.8593 20.0108 99.1261 20.0108Z" fill="#191919"/>
<path d="M90.7509 13.5083H93.0854V16.2093C93.0854 16.7109 93.0082 17.1933 92.8539 17.6563C92.7124 18.1065 92.4809 18.5116 92.1593 18.8718C91.8506 19.219 91.4519 19.4956 90.9631 19.7014C90.4873 19.9072 89.9149 20.0101 89.2461 20.0101C88.5515 20.0101 87.9599 19.9072 87.4711 19.7014C86.9823 19.4956 86.5772 19.219 86.2556 18.8718C85.947 18.5245 85.7219 18.1193 85.5804 17.6563C85.4389 17.1933 85.3682 16.7045 85.3682 16.19V7.70108H87.8377V10.2671H93.0854V12.042H87.8377V15.9392C87.8377 16.5437 87.947 17.0132 88.1657 17.3476C88.3972 17.6692 88.7702 17.8299 89.2847 17.8299C89.7863 17.8299 90.1528 17.6692 90.3844 17.3476C90.6287 17.0261 90.7509 16.5695 90.7509 15.9778V13.5083Z" fill="#191919"/>
<path d="M81.3463 10.7302C81.282 10.0742 81.0441 9.58546 80.6325 9.26391C80.2209 8.94236 79.61 8.78158 78.7996 8.78158C78.0408 8.78158 77.4684 8.9102 77.0826 9.16744C76.6967 9.42468 76.5038 9.79768 76.5038 10.2864C76.5038 10.698 76.6517 11.026 76.9475 11.2704C77.2562 11.5148 77.7707 11.727 78.491 11.9071C79.2241 12.0871 79.9186 12.2672 80.5746 12.4473C81.2434 12.6145 81.8158 12.8074 82.2917 13.0261C82.5747 13.1547 82.8383 13.3026 83.0827 13.4698C83.3271 13.637 83.5393 13.8428 83.7194 14.0872C83.8994 14.3316 84.0409 14.6209 84.1438 14.9554C84.2467 15.2898 84.2982 15.6821 84.2982 16.1322C84.2982 16.8396 84.1695 17.4506 83.9123 17.9651C83.6679 18.4667 83.3142 18.8847 82.8512 19.2191C82.401 19.5535 81.8608 19.7979 81.2306 19.9523C80.6132 20.1195 79.9315 20.2031 79.1855 20.2031C78.3881 20.2031 77.6614 20.113 77.0054 19.933C76.3494 19.7658 75.7835 19.5021 75.3076 19.142C74.8317 18.7818 74.4587 18.3381 74.1886 17.8107C73.9185 17.2705 73.777 16.6403 73.7642 15.92H76.3494C76.3752 16.576 76.6388 17.0969 77.1404 17.4827C77.6549 17.8557 78.343 18.0422 79.2048 18.0422C80.0022 18.0422 80.6132 17.8879 81.0376 17.5792C81.475 17.2577 81.6936 16.8075 81.6936 16.2287C81.6936 16.0358 81.6615 15.8621 81.5971 15.7078C81.5457 15.5534 81.4428 15.412 81.2885 15.2833C81.147 15.1419 80.9476 15.0197 80.6904 14.9168C80.4331 14.801 80.1051 14.6981 79.7064 14.6081C78.909 14.428 78.2337 14.2737 77.6807 14.1451C77.1404 14.0036 76.6453 13.8299 76.1951 13.6241C75.5005 13.3154 74.9668 12.9167 74.5938 12.428C74.2336 11.9263 74.0536 11.2704 74.0536 10.4601C74.0536 9.88128 74.15 9.35394 74.343 8.87805C74.5359 8.38929 74.8253 7.97127 75.2111 7.624C75.6099 7.27672 76.0986 7.00662 76.6774 6.81369C77.2691 6.62076 77.9572 6.52429 78.7418 6.52429C79.5521 6.52429 80.2723 6.62719 80.9026 6.83298C81.5328 7.03877 82.0602 7.32817 82.4846 7.70117C82.9219 8.07417 83.2563 8.51791 83.4879 9.03239C83.7322 9.54687 83.8673 10.1128 83.893 10.7302H81.3463Z" fill="#191919"/>
<path d="M70.3033 19.7597L68.2197 15.4959L67.0042 16.75V19.7597H64.4768V6.79474H67.0042V13.8753L70.1297 10.2675H73.1973L70.0139 13.7595L73.1201 19.7597H70.3033Z" fill="#191919"/>
<path d="M57.9315 19.76V10.2678H60.2853V11.4061C60.4911 11.0845 60.7033 10.8337 60.9219 10.6536C61.1535 10.4736 61.385 10.3385 61.6165 10.2485C61.8609 10.1456 62.1052 10.0813 62.3496 10.0556C62.594 10.0298 62.8448 10.017 63.1021 10.017H63.43V12.5829C63.1985 12.5444 62.967 12.5251 62.7355 12.5251C61.2049 12.5251 60.4396 13.2904 60.4396 14.8209V19.76H57.9315Z" fill="#191919"/>
<path d="M53.9703 15.1103C53.8417 15.239 53.6552 15.3419 53.4108 15.419C53.1664 15.4962 52.8127 15.5798 52.3497 15.6698C51.6294 15.8113 51.1342 15.9914 50.8641 16.21C50.594 16.4287 50.459 16.7438 50.459 17.1554C50.459 17.8628 50.8641 18.2165 51.6744 18.2165C51.996 18.2165 52.2918 18.1651 52.5619 18.0622C52.8449 17.9464 53.0828 17.7985 53.2758 17.6184C53.4815 17.4255 53.6423 17.2068 53.7581 16.9625C53.8867 16.7052 53.951 16.4351 53.951 16.1522L53.9703 15.1103ZM54.1439 19.76C54.0668 19.5156 54.0153 19.2326 53.9896 18.9111C53.6938 19.2455 53.3015 19.5156 52.8127 19.7214C52.324 19.9143 51.758 20.0108 51.1149 20.0108C50.0217 20.0108 49.2178 19.7728 48.7033 19.2969C48.2017 18.8082 47.9509 18.1779 47.9509 17.4062C47.9509 16.7245 48.0602 16.1843 48.2788 15.7856C48.4975 15.374 48.7998 15.0525 49.1856 14.8209C49.5715 14.5894 50.0281 14.4222 50.5554 14.3193C51.0956 14.2036 51.6809 14.1007 52.3111 14.0106C52.9413 13.9206 53.3658 13.8048 53.5844 13.6634C53.8031 13.509 53.9124 13.2646 53.9124 12.9302C53.9124 12.6215 53.7645 12.3836 53.4687 12.2164C53.1857 12.0363 52.7999 11.9463 52.3111 11.9463C51.7323 11.9463 51.3143 12.0749 51.057 12.3321C50.8127 12.5894 50.6583 12.9302 50.594 13.3547H48.2596C48.2724 12.8659 48.3496 12.4157 48.4911 12.0042C48.6454 11.5926 48.8834 11.2389 49.2049 10.943C49.5393 10.6472 49.9702 10.4221 50.4975 10.2678C51.0249 10.1006 51.668 10.017 52.4269 10.017C53.1729 10.017 53.8031 10.1006 54.3176 10.2678C54.8449 10.435 55.2629 10.6794 55.5716 11.0009C55.8932 11.3096 56.1247 11.7019 56.2662 12.1778C56.4077 12.6408 56.4784 13.1682 56.4784 13.7598V19.76H54.1439Z" fill="#191919"/>
<path d="M40.9013 17.5793C42.0717 17.5793 42.9206 17.2191 43.448 16.4989C43.9753 15.7657 44.239 14.6724 44.239 13.219C44.239 12.4988 44.1747 11.8814 44.046 11.3669C43.9174 10.8524 43.7052 10.4344 43.4094 10.1129C43.1264 9.77844 42.7598 9.54049 42.3097 9.39901C41.8595 9.24467 41.3129 9.16749 40.6698 9.16749H38.6826V17.5793H40.9013ZM36.078 19.7594V6.94879H41.0363C41.8981 6.94879 42.6955 7.0967 43.4287 7.39253C44.1618 7.6755 44.7856 8.08708 45.3001 8.62729C45.8274 9.16749 46.239 9.82346 46.5348 10.5952C46.8307 11.3669 46.9786 12.2415 46.9786 13.219C46.9786 14.1966 46.8435 15.0905 46.5734 15.9008C46.3162 16.6982 45.9432 17.3863 45.4544 17.9651C44.9657 18.5311 44.3804 18.9748 43.6988 19.2964C43.0171 19.605 42.2646 19.7594 41.4415 19.7594H36.078Z" fill="#191919"/>
</svg>
