<svg width="120" height="29" viewBox="0 0 120 29" fill="none" xmlns="http://www.w3.org/2000/svg">
<path d="M25.4148 10.8936V17.1934C24.555 18.5192 22.8458 21.2348 22.8875 21.4893C22.9288 21.7444 21.6188 24.6708 20.9587 26.1026C19.6472 26.845 16.4618 28.3301 14.2107 28.3301C11.9595 28.3301 8.77315 26.845 7.46167 26.1026C6.80156 24.6706 5.49238 21.7441 5.53394 21.4893C5.57562 21.2348 3.86643 18.5192 3.00659 17.1934V10.8936L4.88257 9.74809L14.2107 15.2207L23.5388 9.74809L25.4148 10.8936Z" fill="#191919"/>
<path d="M14.2063 0.00942993C13.1515 -0.06684 10.4813 0.290853 7.38403 2.12857C8.17111 3.26972 8.59981 4.99551 8.73071 6.6481C8.88479 8.59309 9.03882 9.10516 9.60376 9.71939C10.0558 10.2108 12.223 11.6643 13.2502 12.3297C8.7821 10.3847 8.57638 9.71896 8.31958 8.54166C8.06275 7.36428 7.39514 4.95897 6.57349 3.67935C6.10049 2.94277 5.33429 3.34625 4.74341 3.89713C3.786 5.12617 1.99536 7.85381 1.99536 15.5348C1.89181 15.671 1.66029 16.0482 1.5647 16.4684C1.44524 16.9936 0.203213 21.0874 0.083252 21.6335C-0.0362072 22.1779 -0.155387 22.5674 0.704346 23.1217C1.56462 23.6762 6.75089 26.5655 7.27661 26.6823L8.01685 25.8659C7.73805 24.1052 7.00877 20.2503 6.32056 18.9196C5.4603 17.2563 4.22433 17.2272 5.19751 12.7917C7.0775 13.9979 11.5109 16.7313 14.2063 18.0153V0.00942993Z" fill="#323232"/>
<path d="M10.2895 17.3664C9.95109 17.1344 7.08155 15.4649 5.68909 14.6591C5.58333 15.626 5.68909 16.3673 6.16499 16.5929C6.6409 16.8185 10.0516 18.6878 10.2895 19.0746C10.4799 19.384 11.0386 20.5942 11.2942 22.6461L12.0081 26.3906C11.9111 25.1552 11.6855 22.1879 11.5586 20.2026C11.4 17.7209 10.7125 17.6565 10.2895 17.3664Z" fill="white"/>
<path d="M14.1951 0.00952148C15.2501 -0.066634 17.9194 0.292105 21.0164 2.12964C20.2297 3.2708 19.8005 4.99606 19.6697 6.64819C19.5156 8.59309 19.3616 9.10526 18.7966 9.71948C18.344 10.2112 16.1771 11.6646 15.1501 12.3298C19.6184 10.3847 19.824 9.71906 20.0808 8.54175C20.3376 7.36453 21.0053 4.9592 21.8269 3.67944C22.2992 2.944 23.0645 3.34472 23.655 3.89429C24.6119 5.12191 26.406 7.8477 26.406 15.5349C26.5096 15.6713 26.7402 16.0486 26.8357 16.4685C26.9551 16.9937 28.1971 21.0874 28.3171 21.6335C28.4366 22.1781 28.5562 22.5674 27.696 23.1218C26.8358 23.6763 21.6513 26.5652 21.1248 26.6824L20.3835 25.865C20.6624 24.1041 21.3926 20.2503 22.0808 18.9197C22.9411 17.2566 24.1769 17.227 23.2039 12.7917C21.3241 13.9979 16.8906 16.7313 14.1951 18.0154V0.00952148Z" fill="#323232"/>
<path d="M18.1119 17.3664C18.4503 17.1344 21.3198 15.4649 22.7123 14.6591C22.818 15.626 22.7123 16.3673 22.2364 16.5929C21.7605 16.8185 18.3498 18.6878 18.1119 19.0746C17.9215 19.384 17.3627 20.5942 17.1072 22.6461L16.3933 26.3906C16.4902 25.1552 16.7159 22.1879 16.8428 20.2026C17.0014 17.7209 17.6888 17.6565 18.1119 17.3664Z" fill="white"/>
<path d="M117.416 14.0878C117.403 13.7405 117.339 13.4383 117.223 13.181C117.12 12.9109 116.979 12.6923 116.799 12.5251C116.619 12.345 116.413 12.2164 116.181 12.1392C115.95 12.0492 115.712 12.0042 115.467 12.0042C114.966 12.0042 114.529 12.1907 114.156 12.5637C113.795 12.9238 113.59 13.4319 113.538 14.0878H117.416ZM113.461 15.6698C113.5 16.3901 113.705 16.9625 114.078 17.3869C114.464 17.8114 114.966 18.0236 115.583 18.0236C115.995 18.0236 116.355 17.9336 116.664 17.7535C116.985 17.5606 117.191 17.2969 117.281 16.9625H119.866C119.57 17.94 119.056 18.6924 118.323 19.2198C117.59 19.7471 116.715 20.0108 115.699 20.0108C112.535 20.0108 110.953 18.2873 110.953 14.8402C110.953 14.1071 111.056 13.4447 111.262 12.8531C111.467 12.2614 111.763 11.7534 112.149 11.3289C112.548 10.9045 113.03 10.5829 113.596 10.3643C114.162 10.1327 114.811 10.017 115.545 10.017C117.011 10.017 118.117 10.4864 118.863 11.4254C119.622 12.3643 120.001 13.7791 120.001 15.6698H113.461Z" fill="#191919"/>
<path d="M105.204 19.76V10.2678H107.558V11.4061C107.764 11.0845 107.976 10.8337 108.195 10.6537C108.426 10.4736 108.658 10.3385 108.889 10.2485C109.133 10.1456 109.378 10.0813 109.622 10.0556C109.867 10.0298 110.117 10.017 110.375 10.017H110.703V12.583C110.471 12.5444 110.24 12.5251 110.008 12.5251C108.477 12.5251 107.712 13.2904 107.712 14.821V19.76H105.204Z" fill="#191919"/>
<path d="M99.126 17.9078C100.657 17.9078 101.422 16.9432 101.422 15.0139C101.422 13.0974 100.657 12.1392 99.126 12.1392C97.5954 12.1392 96.8301 13.0974 96.8301 15.0139C96.8301 16.9432 97.5954 17.9078 99.126 17.9078ZM99.126 20.0108C98.3543 20.0108 97.6662 19.8886 97.0617 19.6442C96.4571 19.3998 95.9427 19.059 95.5182 18.6217C95.1066 18.1844 94.7915 17.657 94.5729 17.0397C94.3542 16.4223 94.2449 15.747 94.2449 15.0139C94.2449 14.2679 94.3542 13.5862 94.5729 12.9688C94.8044 12.3514 95.1324 11.8241 95.5568 11.3868C95.9812 10.9495 96.4893 10.6151 97.081 10.3836C97.6855 10.1392 98.3672 10.017 99.126 10.017C99.872 10.017 100.541 10.1392 101.132 10.3836C101.724 10.6151 102.226 10.9495 102.637 11.3868C103.062 11.8112 103.383 12.3321 103.602 12.9495C103.834 13.5669 103.949 14.255 103.949 15.0139C103.949 15.7727 103.834 16.4609 103.602 17.0782C103.383 17.6828 103.062 18.2037 102.637 18.641C102.226 19.0783 101.718 19.4191 101.113 19.6635C100.522 19.895 99.8592 20.0108 99.126 20.0108Z" fill="#191919"/>
<path d="M90.7509 13.5083H93.0854V16.2093C93.0854 16.711 93.0082 17.1933 92.8539 17.6563C92.7124 18.1065 92.4809 18.5116 92.1593 18.8718C91.8506 19.2191 91.4519 19.4956 90.9631 19.7014C90.4873 19.9072 89.9149 20.0101 89.2461 20.0101C88.5515 20.0101 87.9599 19.9072 87.4711 19.7014C86.9823 19.4956 86.5772 19.2191 86.2556 18.8718C85.947 18.5245 85.7219 18.1193 85.5804 17.6563C85.4389 17.1933 85.3682 16.7045 85.3682 16.19V7.7011H87.8377V10.2671H93.0854V12.042H87.8377V15.9392C87.8377 16.5437 87.947 17.0132 88.1657 17.3476C88.3972 17.6692 88.7702 17.83 89.2847 17.83C89.7863 17.83 90.1528 17.6692 90.3844 17.3476C90.6287 17.0261 90.7509 16.5695 90.7509 15.9778V13.5083Z" fill="#191919"/>
<path d="M81.3463 10.7302C81.282 10.0742 81.0441 9.58544 80.6325 9.26389C80.2209 8.94234 79.61 8.78156 78.7996 8.78156C78.0408 8.78156 77.4684 8.91019 77.0826 9.16743C76.6967 9.42467 76.5038 9.79767 76.5038 10.2864C76.5038 10.698 76.6517 11.026 76.9475 11.2704C77.2562 11.5147 77.7707 11.727 78.491 11.907C79.2241 12.0871 79.9186 12.2672 80.5746 12.4472C81.2434 12.6145 81.8158 12.8074 82.2917 13.026C82.5747 13.1547 82.8383 13.3026 83.0827 13.4698C83.3271 13.637 83.5393 13.8428 83.7194 14.0872C83.8994 14.3315 84.0409 14.6209 84.1438 14.9553C84.2467 15.2898 84.2982 15.682 84.2982 16.1322C84.2982 16.8396 84.1695 17.4506 83.9123 17.9651C83.6679 18.4667 83.3142 18.8847 82.8512 19.2191C82.401 19.5535 81.8608 19.7979 81.2306 19.9522C80.6132 20.1195 79.9315 20.2031 79.1855 20.2031C78.3881 20.2031 77.6614 20.113 77.0054 19.933C76.3494 19.7657 75.7835 19.5021 75.3076 19.1419C74.8317 18.7818 74.4587 18.3381 74.1886 17.8107C73.9185 17.2705 73.777 16.6403 73.7642 15.92H76.3494C76.3752 16.576 76.6388 17.0969 77.1404 17.4827C77.6549 17.8557 78.343 18.0422 79.2048 18.0422C80.0022 18.0422 80.6132 17.8879 81.0376 17.5792C81.475 17.2576 81.6936 16.8075 81.6936 16.2287C81.6936 16.0358 81.6615 15.8621 81.5971 15.7078C81.5457 15.5534 81.4428 15.4119 81.2885 15.2833C81.147 15.1418 80.9476 15.0197 80.6904 14.9168C80.4331 14.801 80.1051 14.6981 79.7064 14.6081C78.909 14.428 78.2337 14.2737 77.6807 14.145C77.1404 14.0036 76.6453 13.8299 76.1951 13.6241C75.5005 13.3154 74.9668 12.9167 74.5938 12.428C74.2336 11.9263 74.0536 11.2704 74.0536 10.4601C74.0536 9.88127 74.15 9.35393 74.343 8.87803C74.5359 8.38927 74.8253 7.97126 75.2111 7.62398C75.6099 7.27671 76.0986 7.0066 76.6774 6.81367C77.2691 6.62074 77.9572 6.52428 78.7418 6.52428C79.5521 6.52428 80.2723 6.62717 80.9026 6.83297C81.5328 7.03876 82.0602 7.32815 82.4846 7.70115C82.9219 8.07415 83.2563 8.51789 83.4879 9.03237C83.7322 9.54686 83.8673 10.1128 83.893 10.7302H81.3463Z" fill="#191919"/>
<path d="M70.3033 19.7597L68.2197 15.4959L67.0042 16.7499V19.7597H64.4768V6.79472H67.0042V13.8753L70.1297 10.2675H73.1973L70.0139 13.7595L73.1201 19.7597H70.3033Z" fill="#191919"/>
<path d="M57.9314 19.76V10.2678H60.2851V11.4061C60.4909 11.0845 60.7032 10.8337 60.9218 10.6537C61.1533 10.4736 61.3849 10.3385 61.6164 10.2485C61.8607 10.1456 62.1051 10.0813 62.3495 10.0556C62.5939 10.0298 62.8447 10.017 63.1019 10.017H63.4299V12.583C63.1984 12.5444 62.9669 12.5251 62.7354 12.5251C61.2048 12.5251 60.4395 13.2904 60.4395 14.821V19.76H57.9314Z" fill="#191919"/>
<path d="M53.9701 15.1104C53.8415 15.239 53.655 15.3419 53.4106 15.419C53.1662 15.4962 52.8125 15.5798 52.3495 15.6698C51.6292 15.8113 51.134 15.9914 50.8639 16.2101C50.5938 16.4287 50.4588 16.7438 50.4588 17.1554C50.4588 17.8628 50.8639 18.2165 51.6742 18.2165C51.9958 18.2165 52.2916 18.1651 52.5617 18.0622C52.8447 17.9464 53.0826 17.7985 53.2756 17.6184C53.4814 17.4255 53.6421 17.2069 53.7579 16.9625C53.8865 16.7052 53.9508 16.4351 53.9508 16.1522L53.9701 15.1104ZM54.1438 19.76C54.0666 19.5156 54.0151 19.2326 53.9894 18.9111C53.6936 19.2455 53.3013 19.5156 52.8125 19.7214C52.3238 19.9143 51.7578 20.0108 51.1147 20.0108C50.0215 20.0108 49.2176 19.7728 48.7031 19.2969C48.2015 18.8082 47.9507 18.1779 47.9507 17.4062C47.9507 16.7245 48.06 16.1843 48.2787 15.7856C48.4973 15.374 48.7996 15.0525 49.1854 14.821C49.5713 14.5894 50.0279 14.4222 50.5552 14.3193C51.0955 14.2036 51.6807 14.1007 52.3109 14.0106C52.9412 13.9206 53.3656 13.8049 53.5843 13.6634C53.8029 13.509 53.9122 13.2646 53.9122 12.9302C53.9122 12.6215 53.7643 12.3836 53.4685 12.2164C53.1855 12.0363 52.7997 11.9463 52.3109 11.9463C51.7321 11.9463 51.3141 12.0749 51.0569 12.3321C50.8125 12.5894 50.6581 12.9302 50.5938 13.3547H48.2594C48.2722 12.8659 48.3494 12.4158 48.4909 12.0042C48.6452 11.5926 48.8832 11.2389 49.2047 10.943C49.5391 10.6472 49.97 10.4221 50.4974 10.2678C51.0247 10.1006 51.6678 10.017 52.4267 10.017C53.1727 10.017 53.8029 10.1006 54.3174 10.2678C54.8447 10.435 55.2628 10.6794 55.5714 11.0009C55.893 11.3096 56.1245 11.7019 56.266 12.1778C56.4075 12.6408 56.4782 13.1682 56.4782 13.7598V19.76H54.1438Z" fill="#191919"/>
<path d="M40.9011 17.5793C42.0716 17.5793 42.9205 17.2191 43.4478 16.4988C43.9752 15.7657 44.2388 14.6724 44.2388 13.219C44.2388 12.4987 44.1745 11.8814 44.0459 11.3669C43.9173 10.8524 43.7051 10.4344 43.4092 10.1128C43.1263 9.77843 42.7597 9.54048 42.3095 9.39899C41.8594 9.24465 41.3127 9.16748 40.6696 9.16748H38.6824V17.5793H40.9011ZM36.0779 19.7594V6.94878H41.0362C41.898 6.94878 42.6954 7.09669 43.4285 7.39252C44.1617 7.67548 44.7855 8.08707 45.3 8.62727C45.8273 9.16748 46.2389 9.82344 46.5347 10.5952C46.8305 11.3669 46.9785 12.2415 46.9785 13.219C46.9785 14.1965 46.8434 15.0904 46.5733 15.9008C46.3161 16.6982 45.9431 17.3863 45.4543 17.9651C44.9655 18.531 44.3803 18.9748 43.6986 19.2963C43.017 19.605 42.2645 19.7594 41.4414 19.7594H36.0779Z" fill="#191919"/>
</svg>
